<svg width="45" height="45" viewBox="0 0 500 500" fill="none" xmlns="http://www.w3.org/2000/svg">
<ellipse cx="267.5" cy="261.003" rx="232.5" ry="239" fill="#1E1E1E"/>
<path d="M165.939 1.05385C161.223 3.0627 157.108 5.07154 149.509 9.02743C141.159 13.3851 139.717 14.4668 138.275 17.4028C134.821 24.3874 139.207 32.67 146.896 33.5972C149.329 33.9062 151.221 33.1954 159.751 28.8068C164.317 26.458 169.934 23.7075 172.247 22.6876C175.641 21.2041 176.752 20.5551 178.134 19.2571C184.171 13.4778 182.068 3.27903 174.229 0.466648C173.508 0.219406 171.916 0.00306702 170.625 0.00306702C168.732 0.00306702 167.951 0.188499 165.939 1.05385Z" fill="#00B8E4"/>
<path d="M260.452 22.0746C229.424 23.249 200.65 29.9554 173.497 42.3794C147.335 54.3398 123.696 70.9977 103.482 91.7352C51.6088 144.954 27.2794 218.973 37.1613 293.609C49.0858 383.791 110.991 459.911 195.573 488.344C204.975 491.527 212.214 493.474 222.306 495.514C238.976 498.913 253.333 500.211 271.415 499.902C284.992 499.655 294.603 498.759 306.948 496.564C372.818 484.851 430.909 443.994 465.991 384.656C495.877 334.126 506.36 273.459 495.307 215.202C485.004 161.056 457.07 112.782 415.38 76.9933C380.477 47.0461 336.564 28.0393 291.389 23.3108C282.258 22.3527 268.141 21.7964 260.452 22.0746ZM279.675 45.6862C293.432 46.5825 305.567 48.4986 318.122 51.6819C362.245 62.9314 401.503 88.8919 430.518 126.04C445.957 145.789 458.452 169.339 466.201 193.228C481.94 241.75 480.499 292.775 462.086 340.369C460.765 343.768 459.593 346.643 459.473 346.766C459.383 346.89 456.65 342.285 453.466 336.567C450.252 330.85 444.966 321.424 441.722 315.644C438.478 309.865 431.179 296.854 425.502 286.748C419.825 276.642 406.669 253.185 396.277 234.672C367.412 183.277 356.959 164.61 345.966 145.047C340.439 135.188 333.711 123.228 331.038 118.468C328.364 113.709 325.511 108.61 324.7 107.126L323.228 104.437L268.892 104.499L214.526 104.561L209.841 112.905C207.258 117.479 201.821 127.153 197.766 134.385C193.711 141.616 185.121 156.915 178.693 168.38C167.219 188.809 154.213 211.957 128.142 258.47C120.993 271.203 106.696 296.73 96.3931 315.181C86.0606 333.631 77.4101 349.053 77.1698 349.455L76.6892 350.228L76.1486 349.115C75.8482 348.497 74.7068 345.839 73.6255 343.181C63.0227 316.912 57.5561 289.066 57.5561 261.097C57.5561 193.507 89.3946 128.636 142.649 87.6557C174.998 62.7769 213.355 48.3441 254.144 45.7172C259.911 45.3463 274.179 45.3463 279.675 45.6862ZM311.874 131.047C313.707 134.292 340.799 182.566 408.832 303.9C429.617 340.956 446.678 371.49 446.738 371.738C446.948 372.541 433.432 393.031 432.651 393.062C432.561 393.062 428.596 386.14 423.82 377.671C419.074 369.234 408.471 350.351 400.271 335.733C392.042 321.115 379.757 299.203 372.938 287.057C366.12 274.911 355.247 255.564 348.819 244.099C322.958 198.019 315.659 185.038 313.346 180.897C311.994 178.517 307.729 170.884 303.855 163.961L296.796 151.383H268.862H240.928L230.866 169.369C215.788 196.257 216.118 195.67 200.469 223.547C192.45 237.825 182.087 256.306 177.401 264.651C102.851 397.513 104.022 395.473 103.241 394.824C102.46 394.144 96.0327 385.12 92.6987 379.989C89.695 375.323 89.3946 374.766 89.725 374.148C89.9353 373.747 99.577 356.47 111.171 335.733C142.709 279.362 164.576 240.297 182.658 208.094C189.596 195.67 202.572 172.553 211.463 156.698L227.652 127.894H268.862H310.102L311.874 131.047ZM296.556 197.741C309.742 221.26 317.731 235.476 333.741 264.033C338.907 273.211 353.565 299.357 366.33 322.135C379.096 344.912 395.676 374.426 403.125 387.716L416.731 411.884L412.166 416.458C407.42 421.217 400.121 427.831 399.611 427.831C399.25 427.831 392.732 416.241 308.57 266.35L281.417 217.984H268.862H256.337L252.522 224.783C237.775 250.99 149.948 407.619 141.958 421.959C139.585 426.193 137.603 429.747 137.573 429.809C137.423 429.994 136.251 429.098 132.947 426.255C129.283 423.102 121.864 416.21 120.302 414.48L119.191 413.305L127.241 399.769C137.693 382.245 144.842 369.667 173.707 318.117C192.42 284.739 250.69 180.804 252.252 178.023L254.054 174.871L268.922 174.932L283.82 175.025L296.556 197.741ZM285.082 271.295C308.841 313.667 357.319 400.047 373.809 429.345C377.624 436.144 380.748 441.8 380.748 441.924C380.748 442.542 361.464 454.008 361.074 453.606C360.954 453.451 321.456 383.265 297.547 340.678C287.905 323.494 277.573 305.106 274.599 299.79C271.596 294.474 269.042 290.086 268.892 290.055C268.772 290.024 258.86 307.455 246.876 328.779C218.131 379.989 176.14 454.688 175.99 454.873C175.719 455.182 162.563 447.827 157.968 444.798L156.136 443.593L165.297 427.213C183.258 395.102 221.104 327.574 262.344 254.05C265.919 247.715 268.922 242.646 269.042 242.77C269.133 242.893 276.371 255.75 285.082 271.295ZM280.126 356.44C286.103 367.133 302.022 395.504 315.509 419.425C328.995 443.438 339.868 463.063 339.718 463.217C339.328 463.588 332.089 466.092 326.923 467.668C306.738 473.756 288.116 476.507 267.06 476.507C244.202 476.507 223.808 473.107 201.43 465.628C199.358 464.948 197.586 464.268 197.436 464.176C197.315 464.052 205.786 448.723 216.238 430.118C234.591 397.513 249.369 371.212 262.555 347.724C266.009 341.543 268.922 336.629 269.042 336.753C269.133 336.876 274.119 345.715 280.126 356.44Z" fill="#00B8E4"/>
<path d="M103.312 40.6742C102.411 40.9214 100.999 41.6014 100.158 42.1576C94.6616 45.9899 76.6698 63.7296 68.1995 73.712C60.9607 82.211 53.1212 92.5952 47.9249 100.538C46.0927 103.319 45.3118 104.803 45.0715 105.977C43.9301 111.54 46.303 116.547 51.1989 118.896C52.7608 119.637 53.3615 119.761 55.7044 119.761C58.0172 119.73 58.6479 119.606 60.1197 118.896C62.2523 117.814 63.7842 116.3 65.7966 113.209C68.2295 109.5 74.6273 100.723 77.9313 96.582C87.8733 84.0962 98.1157 73.3411 110.28 62.617C112.984 60.2373 114.996 58.1975 115.447 57.394C119.201 50.7493 115.957 42.5285 108.869 40.6433C106.706 40.087 105.475 40.087 103.312 40.6742Z" fill="#00B8E4"/>
<path d="M27.4106 144.022C25.5484 144.794 23.0854 146.989 22.0642 148.781C21.133 150.419 18.1895 158.084 15.5763 165.563C-0.523197 211.828 -4.27774 263.935 4.94343 312.765C6.11484 318.977 7.61666 321.418 11.4613 323.489C12.9031 324.262 13.3536 324.354 16.0569 324.354C18.7001 324.354 19.2708 324.262 20.7726 323.52C22.9653 322.469 24.8876 320.491 25.9989 318.173C26.7498 316.566 26.87 315.979 26.87 313.692C26.87 312.24 26.6297 309.613 26.3594 307.82C25.6385 303.339 24.5572 292.553 22.9352 273.824L21.5836 257.908L21.914 249.718C23.1154 219.029 28.8524 191.152 39.5754 163.832L42.1585 157.157V154.375C42.1585 151.964 42.0384 151.346 41.2875 149.77C40.2362 147.514 38.404 145.567 36.2714 144.454C34.0787 143.28 29.7835 143.064 27.4106 144.022Z" fill="#00B8E4"/>
<path d="M29.1229 353.035C25.7288 353.807 22.5149 356.681 21.3134 359.988C20.7728 361.472 20.6826 362.213 20.8028 364.531C20.9229 367.189 21.013 367.529 23.1156 372.412C24.3471 375.225 27.0804 381.097 29.183 385.454C33.5983 394.51 34.5895 395.9 37.7734 397.507C39.5756 398.435 40.0261 398.527 42.4891 398.527C44.9521 398.527 45.4027 398.435 47.2048 397.507C51.1396 395.53 53.2422 392.006 53.2722 387.401L53.3022 384.898L48.7367 375.503C46.2437 370.311 43.4803 364.408 42.6093 362.368C41.7682 360.328 40.6569 358.041 40.1463 357.3C37.8935 353.931 33.2079 352.107 29.1229 353.035Z" fill="#00B8E4"/>
<path d="M67.5696 419.667C63.9652 420.81 61.1418 423.901 60.1806 427.733C59.5799 430.205 59.7901 432.77 60.7513 434.965C61.8026 437.344 70.1227 447.265 77.4816 454.991C82.1973 459.936 83.4589 460.647 87.5438 460.647C90.0068 460.647 90.4573 460.554 92.2295 459.658C94.6024 458.453 96.4346 456.506 97.546 454.064C98.2368 452.55 98.3569 451.901 98.3269 449.521C98.3269 445.442 97.6661 444.174 93.0405 439.23C88.7152 434.656 84.7204 430.143 80.8156 425.477C77.6618 421.706 76.6406 420.81 74.478 419.976C72.9161 419.357 69.1014 419.203 67.5696 419.667Z" fill="#00B8E4"/>
</svg>
